<?xml version="1.0" encoding="utf-8"?>
<!-- Generator: Adobe Illustrator 22.1.0, SVG Export Plug-In . SVG Version: 6.00 Build 0)  -->
<svg version="1.1" id="Layer_1" xmlns="http://www.w3.org/2000/svg" xmlns:xlink="http://www.w3.org/1999/xlink" x="0px" y="0px"
	 viewBox="0 0 1280 1000" style="enable-background:new 0 0 1280 1000;" xml:space="preserve">
<style type="text/css">
	.st0{fill:#3B3F41;}
</style>
<g transform="translate(0.000000,1000.000000) scale(0.100000,-0.100000)">
	<path class="st0" d="M12749,5925c-181,1062-860,2040-1939,2792c-1281,893-3059,1360-4840,1272c-1592-79-3083-587-4190-1428
		c-501-380-907-817-1218-1310c-81-129-250-460-301-591C97,6244,17,5863,3,5435c-16-534,142-1069,482-1633
		c510-845,1429-1713,2435-2302c215-125,315-196,389-276c66-70,93-120,99-187c4-39-1-59-28-113c-26-53-68-103-214-254
		c-232-240-284-324-273-439c9-90,70-138,185-148c135-11,326,34,986,232c770,230,1131,319,1519,375c134,19,163,20,317,11
		c359-23,919-12,1320,24c1978,182,3736,1037,4736,2305c299,379,528,800,669,1227c118,360,170,687,170,1083
		C12795,5599,12787,5703,12749,5925z M3643.8,4583.1c-465,0-783.8,358.7-783.8,836.9c0,491.5,332.1,836.9,797,836.9
		c465,0,783.8-345.4,783.8-836.9C4440.8,4941.8,4135.3,4583.1,3643.8,4583.1z M6393.4,4583.1c-465,0-783.8,358.7-783.8,836.9
		c0,491.5,332.1,836.9,797,836.9c465,0,783.8-345.4,783.8-836.9C7190.4,4941.8,6884.9,4583.1,6393.4,4583.1z M9143,4583.1
		c-465,0-783.8,358.7-783.8,836.9c0,491.5,332.1,836.9,797,836.9c465,0,783.8-345.4,783.8-836.9
		C9940,4941.8,9634.4,4583.1,9143,4583.1z"/>
</g>
</svg>
